<?xml version="1.0" encoding="UTF-8"?>
<!DOCTYPE svg PUBLIC "-//W3C//DTD SVG 1.1//EN" "http://www.w3.org/Graphics/SVG/1.1/DTD/svg11.dtd">
<svg xmlns="http://www.w3.org/2000/svg" version="1.1" viewBox="0 0 31 31" stroke="none">
	<rect width="100%" height="100%" fill="#FFFFFF"/>
	<path d="M1,1h1v1h-1z M2,1h1v1h-1z M3,1h1v1h-1z M4,1h1v1h-1z M5,1h1v1h-1z M6,1h1v1h-1z M7,1h1v1h-1z M11,1h1v1h-1z M12,1h1v1h-1z M13,1h1v1h-1z M15,1h1v1h-1z M18,1h1v1h-1z M19,1h1v1h-1z M20,1h1v1h-1z M23,1h1v1h-1z M24,1h1v1h-1z M25,1h1v1h-1z M26,1h1v1h-1z M27,1h1v1h-1z M28,1h1v1h-1z M29,1h1v1h-1z M1,2h1v1h-1z M7,2h1v1h-1z M11,2h1v1h-1z M12,2h1v1h-1z M17,2h1v1h-1z M19,2h1v1h-1z M21,2h1v1h-1z M23,2h1v1h-1z M29,2h1v1h-1z M1,3h1v1h-1z M3,3h1v1h-1z M4,3h1v1h-1z M5,3h1v1h-1z M7,3h1v1h-1z M10,3h1v1h-1z M11,3h1v1h-1z M12,3h1v1h-1z M13,3h1v1h-1z M15,3h1v1h-1z M16,3h1v1h-1z M18,3h1v1h-1z M19,3h1v1h-1z M20,3h1v1h-1z M21,3h1v1h-1z M23,3h1v1h-1z M25,3h1v1h-1z M26,3h1v1h-1z M27,3h1v1h-1z M29,3h1v1h-1z M1,4h1v1h-1z M3,4h1v1h-1z M4,4h1v1h-1z M5,4h1v1h-1z M7,4h1v1h-1z M11,4h1v1h-1z M14,4h1v1h-1z M19,4h1v1h-1z M20,4h1v1h-1z M23,4h1v1h-1z M25,4h1v1h-1z M26,4h1v1h-1z M27,4h1v1h-1z M29,4h1v1h-1z M1,5h1v1h-1z M3,5h1v1h-1z M4,5h1v1h-1z M5,5h1v1h-1z M7,5h1v1h-1z M11,5h1v1h-1z M12,5h1v1h-1z M19,5h1v1h-1z M23,5h1v1h-1z M25,5h1v1h-1z M26,5h1v1h-1z M27,5h1v1h-1z M29,5h1v1h-1z M1,6h1v1h-1z M7,6h1v1h-1z M9,6h1v1h-1z M10,6h1v1h-1z M11,6h1v1h-1z M12,6h1v1h-1z M16,6h1v1h-1z M18,6h1v1h-1z M19,6h1v1h-1z M20,6h1v1h-1z M23,6h1v1h-1z M29,6h1v1h-1z M1,7h1v1h-1z M2,7h1v1h-1z M3,7h1v1h-1z M4,7h1v1h-1z M5,7h1v1h-1z M6,7h1v1h-1z M7,7h1v1h-1z M9,7h1v1h-1z M11,7h1v1h-1z M13,7h1v1h-1z M15,7h1v1h-1z M17,7h1v1h-1z M19,7h1v1h-1z M21,7h1v1h-1z M23,7h1v1h-1z M24,7h1v1h-1z M25,7h1v1h-1z M26,7h1v1h-1z M27,7h1v1h-1z M28,7h1v1h-1z M29,7h1v1h-1z M10,8h1v1h-1z M12,8h1v1h-1z M14,8h1v1h-1z M18,8h1v1h-1z M19,8h1v1h-1z M20,8h1v1h-1z M21,8h1v1h-1z M1,9h1v1h-1z M4,9h1v1h-1z M6,9h1v1h-1z M7,9h1v1h-1z M9,9h1v1h-1z M13,9h1v1h-1z M15,9h1v1h-1z M17,9h1v1h-1z M19,9h1v1h-1z M20,9h1v1h-1z M22,9h1v1h-1z M24,9h1v1h-1z M2,10h1v1h-1z M3,10h1v1h-1z M4,10h1v1h-1z M5,10h1v1h-1z M9,10h1v1h-1z M11,10h1v1h-1z M14,10h1v1h-1z M17,10h1v1h-1z M22,10h1v1h-1z M23,10h1v1h-1z M24,10h1v1h-1z M26,10h1v1h-1z M29,10h1v1h-1z M1,11h1v1h-1z M3,11h1v1h-1z M4,11h1v1h-1z M5,11h1v1h-1z M6,11h1v1h-1z M7,11h1v1h-1z M9,11h1v1h-1z M13,11h1v1h-1z M14,11h1v1h-1z M15,11h1v1h-1z M18,11h1v1h-1z M20,11h1v1h-1z M21,11h1v1h-1z M22,11h1v1h-1z M23,11h1v1h-1z M25,11h1v1h-1z M26,11h1v1h-1z M27,11h1v1h-1z M28,11h1v1h-1z M2,12h1v1h-1z M4,12h1v1h-1z M6,12h1v1h-1z M8,12h1v1h-1z M10,12h1v1h-1z M12,12h1v1h-1z M14,12h1v1h-1z M16,12h1v1h-1z M17,12h1v1h-1z M19,12h1v1h-1z M20,12h1v1h-1z M21,12h1v1h-1z M22,12h1v1h-1z M23,12h1v1h-1z M24,12h1v1h-1z M25,12h1v1h-1z M27,12h1v1h-1z M28,12h1v1h-1z M1,13h1v1h-1z M2,13h1v1h-1z M3,13h1v1h-1z M4,13h1v1h-1z M7,13h1v1h-1z M9,13h1v1h-1z M15,13h1v1h-1z M17,13h1v1h-1z M18,13h1v1h-1z M19,13h1v1h-1z M20,13h1v1h-1z M21,13h1v1h-1z M22,13h1v1h-1z M23,13h1v1h-1z M26,13h1v1h-1z M28,13h1v1h-1z M29,13h1v1h-1z M1,14h1v1h-1z M2,14h1v1h-1z M6,14h1v1h-1z M9,14h1v1h-1z M10,14h1v1h-1z M12,14h1v1h-1z M13,14h1v1h-1z M14,14h1v1h-1z M15,14h1v1h-1z M18,14h1v1h-1z M19,14h1v1h-1z M20,14h1v1h-1z M21,14h1v1h-1z M22,14h1v1h-1z M2,15h1v1h-1z M4,15h1v1h-1z M7,15h1v1h-1z M8,15h1v1h-1z M12,15h1v1h-1z M14,15h1v1h-1z M15,15h1v1h-1z M17,15h1v1h-1z M19,15h1v1h-1z M22,15h1v1h-1z M24,15h1v1h-1z M26,15h1v1h-1z M27,15h1v1h-1z M28,15h1v1h-1z M29,15h1v1h-1z M6,16h1v1h-1z M8,16h1v1h-1z M10,16h1v1h-1z M11,16h1v1h-1z M13,16h1v1h-1z M16,16h1v1h-1z M18,16h1v1h-1z M20,16h1v1h-1z M21,16h1v1h-1z M23,16h1v1h-1z M24,16h1v1h-1z M26,16h1v1h-1z M28,16h1v1h-1z M2,17h1v1h-1z M3,17h1v1h-1z M4,17h1v1h-1z M7,17h1v1h-1z M9,17h1v1h-1z M10,17h1v1h-1z M11,17h1v1h-1z M13,17h1v1h-1z M14,17h1v1h-1z M17,17h1v1h-1z M18,17h1v1h-1z M19,17h1v1h-1z M20,17h1v1h-1z M22,17h1v1h-1z M24,17h1v1h-1z M28,17h1v1h-1z M2,18h1v1h-1z M4,18h1v1h-1z M8,18h1v1h-1z M9,18h1v1h-1z M11,18h1v1h-1z M14,18h1v1h-1z M15,18h1v1h-1z M17,18h1v1h-1z M19,18h1v1h-1z M23,18h1v1h-1z M24,18h1v1h-1z M26,18h1v1h-1z M29,18h1v1h-1z M1,19h1v1h-1z M3,19h1v1h-1z M4,19h1v1h-1z M6,19h1v1h-1z M7,19h1v1h-1z M8,19h1v1h-1z M10,19h1v1h-1z M12,19h1v1h-1z M15,19h1v1h-1z M17,19h1v1h-1z M18,19h1v1h-1z M19,19h1v1h-1z M21,19h1v1h-1z M23,19h1v1h-1z M24,19h1v1h-1z M25,19h1v1h-1z M28,19h1v1h-1z M29,19h1v1h-1z M3,20h1v1h-1z M4,20h1v1h-1z M5,20h1v1h-1z M9,20h1v1h-1z M10,20h1v1h-1z M12,20h1v1h-1z M15,20h1v1h-1z M18,20h1v1h-1z M19,20h1v1h-1z M20,20h1v1h-1z M21,20h1v1h-1z M22,20h1v1h-1z M28,20h1v1h-1z M29,20h1v1h-1z M1,21h1v1h-1z M3,21h1v1h-1z M5,21h1v1h-1z M7,21h1v1h-1z M8,21h1v1h-1z M12,21h1v1h-1z M13,21h1v1h-1z M16,21h1v1h-1z M17,21h1v1h-1z M19,21h1v1h-1z M21,21h1v1h-1z M22,21h1v1h-1z M23,21h1v1h-1z M24,21h1v1h-1z M25,21h1v1h-1z M27,21h1v1h-1z M9,22h1v1h-1z M12,22h1v1h-1z M13,22h1v1h-1z M15,22h1v1h-1z M20,22h1v1h-1z M21,22h1v1h-1z M25,22h1v1h-1z M27,22h1v1h-1z M28,22h1v1h-1z M29,22h1v1h-1z M1,23h1v1h-1z M2,23h1v1h-1z M3,23h1v1h-1z M4,23h1v1h-1z M5,23h1v1h-1z M6,23h1v1h-1z M7,23h1v1h-1z M11,23h1v1h-1z M12,23h1v1h-1z M13,23h1v1h-1z M21,23h1v1h-1z M23,23h1v1h-1z M25,23h1v1h-1z M28,23h1v1h-1z M1,24h1v1h-1z M7,24h1v1h-1z M9,24h1v1h-1z M12,24h1v1h-1z M15,24h1v1h-1z M17,24h1v1h-1z M19,24h1v1h-1z M21,24h1v1h-1z M25,24h1v1h-1z M26,24h1v1h-1z M27,24h1v1h-1z M29,24h1v1h-1z M1,25h1v1h-1z M3,25h1v1h-1z M4,25h1v1h-1z M5,25h1v1h-1z M7,25h1v1h-1z M10,25h1v1h-1z M11,25h1v1h-1z M12,25h1v1h-1z M13,25h1v1h-1z M18,25h1v1h-1z M21,25h1v1h-1z M22,25h1v1h-1z M23,25h1v1h-1z M24,25h1v1h-1z M25,25h1v1h-1z M29,25h1v1h-1z M1,26h1v1h-1z M3,26h1v1h-1z M4,26h1v1h-1z M5,26h1v1h-1z M7,26h1v1h-1z M9,26h1v1h-1z M10,26h1v1h-1z M13,26h1v1h-1z M17,26h1v1h-1z M18,26h1v1h-1z M19,26h1v1h-1z M20,26h1v1h-1z M21,26h1v1h-1z M23,26h1v1h-1z M25,26h1v1h-1z M26,26h1v1h-1z M27,26h1v1h-1z M28,26h1v1h-1z M1,27h1v1h-1z M3,27h1v1h-1z M4,27h1v1h-1z M5,27h1v1h-1z M7,27h1v1h-1z M10,27h1v1h-1z M11,27h1v1h-1z M13,27h1v1h-1z M14,27h1v1h-1z M15,27h1v1h-1z M18,27h1v1h-1z M20,27h1v1h-1z M21,27h1v1h-1z M25,27h1v1h-1z M26,27h1v1h-1z M27,27h1v1h-1z M29,27h1v1h-1z M1,28h1v1h-1z M7,28h1v1h-1z M11,28h1v1h-1z M14,28h1v1h-1z M15,28h1v1h-1z M16,28h1v1h-1z M18,28h1v1h-1z M20,28h1v1h-1z M21,28h1v1h-1z M24,28h1v1h-1z M28,28h1v1h-1z M1,29h1v1h-1z M2,29h1v1h-1z M3,29h1v1h-1z M4,29h1v1h-1z M5,29h1v1h-1z M6,29h1v1h-1z M7,29h1v1h-1z M9,29h1v1h-1z M14,29h1v1h-1z M15,29h1v1h-1z M17,29h1v1h-1z M18,29h1v1h-1z M19,29h1v1h-1z M20,29h1v1h-1z M21,29h1v1h-1z M22,29h1v1h-1z M23,29h1v1h-1z M25,29h1v1h-1z M28,29h1v1h-1z" fill="#000000"/>
</svg>
